<svg width="31" height="31" fill="none" xmlns="http://www.w3.org/2000/svg"><path d="M2.424 1.78C3.631.573 7.28.372 7.306 1.01c.028.638 3.286 7.717 3.314 8.355.028.638-2.147 2.814-2.784 3.451-.63.63 4.257 6.155 4.35 6.26.104.093 5.628 4.98 6.259 4.349.636-.637 2.813-2.812 3.45-2.784.638.027 7.718 3.285 8.356 3.314.638.028.437 3.674-.77 4.882-1.032 1.032-6.376 4.777-15.668-1.912-1.02-.585-2.633-1.93-5.08-4.376l-.005-.004-.006-.006-.006-.005c0-.002-.003-.004-.004-.005-2.445-2.448-3.79-4.062-4.377-5.08C-2.353 8.155 1.393 2.811 2.425 1.78z" fill="#E65012"/></svg>