<svg width="1576" height="6836" fill="none" xmlns="http://www.w3.org/2000/svg"><path d="M151 201v400m0 15v400m0 15v400m0 15v400m0 15v400m0 15v400m0 16v400m0 1264v400m0-1648v400m0 1264v400m0-1648v400m0 1264v400m0-1648v400m0 1264v400m0 16v400m0 16v400" stroke="#DBDBDB" stroke-opacity=".2" stroke-width="3"/><circle cx="151" cy="609" r="7.5" stroke="#DBDBDB" stroke-opacity=".2" stroke-width="3"/><circle cx="151" cy="1024" r="7.5" stroke="#DBDBDB" stroke-opacity=".2" stroke-width="3"/><circle cx="151" cy="1439" r="7.5" stroke="#DBDBDB" stroke-opacity=".2" stroke-width="3"/><circle cx="151" cy="2684" r="7.5" stroke="#DBDBDB" stroke-opacity=".2" stroke-width="3"/><circle cx="151" cy="4348" r="7.5" stroke="#DBDBDB" stroke-opacity=".2" stroke-width="3"/><circle cx="151" cy="3100" r="7.5" stroke="#DBDBDB" stroke-opacity=".2" stroke-width="3"/><circle cx="151" cy="4764" r="7.5" stroke="#DBDBDB" stroke-opacity=".2" stroke-width="3"/><circle cx="151" cy="3516" r="7.5" stroke="#DBDBDB" stroke-opacity=".2" stroke-width="3"/><circle cx="151" cy="5180" r="7.5" stroke="#DBDBDB" stroke-opacity=".2" stroke-width="3"/><circle cx="151" cy="3932" r="7.5" stroke="#DBDBDB" stroke-opacity=".2" stroke-width="3"/><circle cx="151" cy="5596" r="7.5" stroke="#DBDBDB" stroke-opacity=".2" stroke-width="3"/><circle cx="151" cy="6012" r="7.5" stroke="#DBDBDB" stroke-opacity=".2" stroke-width="3"/><circle cx="151" cy="6428" r="7.5" stroke="#DBDBDB" stroke-opacity=".2" stroke-width="3"/><circle cx="151" cy="1854" r="7.5" stroke="#DBDBDB" stroke-opacity=".2" stroke-width="3"/><circle cx="151" cy="2268" r="7.5" stroke="#DBDBDB" stroke-opacity=".2" stroke-width="3"/><path d="M293 3v400m0 15v400m0 15v400m0 15v400m0 15v400m0 15v400m0 16v400m0 1264v400m0-1648v400m0 1264v400m0-1648v400m0 1264v400m0-1648v400m0 1264v400m0 16v400m0 16v400" stroke="#DBDBDB" stroke-opacity=".2" stroke-width="3"/><circle cx="293" cy="411" r="7.5" stroke="#DBDBDB" stroke-opacity=".2" stroke-width="3"/><circle cx="293" cy="826" r="7.5" stroke="#DBDBDB" stroke-opacity=".2" stroke-width="3"/><circle cx="293" cy="1241" r="7.5" stroke="#DBDBDB" stroke-opacity=".2" stroke-width="3"/><circle cx="293" cy="2486" r="7.5" stroke="#DBDBDB" stroke-opacity=".2" stroke-width="3"/><circle cx="293" cy="4150" r="7.5" stroke="#DBDBDB" stroke-opacity=".2" stroke-width="3"/><circle cx="293" cy="2902" r="7.5" stroke="#DBDBDB" stroke-opacity=".2" stroke-width="3"/><circle cx="293" cy="4566" r="7.5" stroke="#DBDBDB" stroke-opacity=".2" stroke-width="3"/><circle cx="293" cy="3318" r="7.5" stroke="#DBDBDB" stroke-opacity=".2" stroke-width="3"/><circle cx="293" cy="4982" r="7.5" stroke="#DBDBDB" stroke-opacity=".2" stroke-width="3"/><circle cx="293" cy="3734" r="7.5" stroke="#DBDBDB" stroke-opacity=".2" stroke-width="3"/><circle cx="293" cy="5398" r="7.5" stroke="#DBDBDB" stroke-opacity=".2" stroke-width="3"/><circle cx="293" cy="5814" r="7.5" stroke="#DBDBDB" stroke-opacity=".2" stroke-width="3"/><circle cx="293" cy="6230" r="7.5" stroke="#DBDBDB" stroke-opacity=".2" stroke-width="3"/><circle cx="293" cy="1656" r="7.5" stroke="#DBDBDB" stroke-opacity=".2" stroke-width="3"/><circle cx="293" cy="2070" r="7.5" stroke="#DBDBDB" stroke-opacity=".2" stroke-width="3"/><path d="M435 201v400m0 15v400m0 15v400m0 15v400m0 15v400m0 15v400m0 16v400m0 1264v400m0-1648v400m0 1264v400m0-1648v400m0 1264v400m0-1648v400m0 1264v400m0 16v400m0 16v400" stroke="#DBDBDB" stroke-opacity=".2" stroke-width="3"/><circle cx="435" cy="609" r="7.5" stroke="#DBDBDB" stroke-opacity=".2" stroke-width="3"/><circle cx="435" cy="1024" r="7.5" stroke="#DBDBDB" stroke-opacity=".2" stroke-width="3"/><circle cx="435" cy="1439" r="7.5" stroke="#DBDBDB" stroke-opacity=".2" stroke-width="3"/><circle cx="435" cy="2684" r="7.5" stroke="#DBDBDB" stroke-opacity=".2" stroke-width="3"/><circle cx="435" cy="4348" r="7.5" stroke="#DBDBDB" stroke-opacity=".2" stroke-width="3"/><circle cx="435" cy="3100" r="7.5" stroke="#DBDBDB" stroke-opacity=".2" stroke-width="3"/><circle cx="435" cy="4764" r="7.5" stroke="#DBDBDB" stroke-opacity=".2" stroke-width="3"/><circle cx="435" cy="3516" r="7.5" stroke="#DBDBDB" stroke-opacity=".2" stroke-width="3"/><circle cx="435" cy="5180" r="7.5" stroke="#DBDBDB" stroke-opacity=".2" stroke-width="3"/><circle cx="435" cy="3932" r="7.5" stroke="#DBDBDB" stroke-opacity=".2" stroke-width="3"/><circle cx="435" cy="5596" r="7.5" stroke="#DBDBDB" stroke-opacity=".2" stroke-width="3"/><circle cx="435" cy="6012" r="7.5" stroke="#DBDBDB" stroke-opacity=".2" stroke-width="3"/><circle cx="435" cy="6428" r="7.5" stroke="#DBDBDB" stroke-opacity=".2" stroke-width="3"/><circle cx="435" cy="1854" r="7.5" stroke="#DBDBDB" stroke-opacity=".2" stroke-width="3"/><circle cx="435" cy="2268" r="7.5" stroke="#DBDBDB" stroke-opacity=".2" stroke-width="3"/><path d="M577 0v400m0 15v400m0 15v400m0 15v400m0 15v400m0 15v400m0 16v400m0 1264v400m0-1648v400m0 1264v400m0-1648v400m0 1264v400m0-1648v400m0 1264v400m0 16v400m0 16v400" stroke="#DBDBDB" stroke-opacity=".2" stroke-width="3"/><circle cx="577" cy="408" r="7.5" stroke="#DBDBDB" stroke-opacity=".2" stroke-width="3"/><circle cx="577" cy="823" r="7.5" stroke="#DBDBDB" stroke-opacity=".2" stroke-width="3"/><circle cx="577" cy="1238" r="7.5" stroke="#DBDBDB" stroke-opacity=".2" stroke-width="3"/><circle cx="577" cy="2483" r="7.5" stroke="#DBDBDB" stroke-opacity=".2" stroke-width="3"/><circle cx="577" cy="4147" r="7.5" stroke="#DBDBDB" stroke-opacity=".2" stroke-width="3"/><circle cx="577" cy="2899" r="7.5" stroke="#DBDBDB" stroke-opacity=".2" stroke-width="3"/><circle cx="577" cy="4563" r="7.5" stroke="#DBDBDB" stroke-opacity=".2" stroke-width="3"/><circle cx="577" cy="3315" r="7.5" stroke="#DBDBDB" stroke-opacity=".2" stroke-width="3"/><circle cx="577" cy="4979" r="7.5" stroke="#DBDBDB" stroke-opacity=".2" stroke-width="3"/><circle cx="577" cy="3731" r="7.5" stroke="#DBDBDB" stroke-opacity=".2" stroke-width="3"/><circle cx="577" cy="5395" r="7.5" stroke="#DBDBDB" stroke-opacity=".2" stroke-width="3"/><circle cx="577" cy="5811" r="7.5" stroke="#DBDBDB" stroke-opacity=".2" stroke-width="3"/><circle cx="577" cy="6227" r="7.5" stroke="#DBDBDB" stroke-opacity=".2" stroke-width="3"/><circle cx="577" cy="1653" r="7.5" stroke="#DBDBDB" stroke-opacity=".2" stroke-width="3"/><circle cx="577" cy="2067" r="7.5" stroke="#DBDBDB" stroke-opacity=".2" stroke-width="3"/><path d="M862 0v400m0 15v400m0 15v400m0 15v400m0 15v400m0 15v400m0 16v400m0 1264v400m0-1648v400m0 1264v400m0-1648v400m0 1264v400m0-1648v400m0 1264v400m0 16v400m0 16v400" stroke="#DBDBDB" stroke-opacity=".2" stroke-width="3"/><circle cx="862" cy="408" r="7.5" stroke="#DBDBDB" stroke-opacity=".2" stroke-width="3"/><circle cx="862" cy="823" r="7.5" stroke="#DBDBDB" stroke-opacity=".2" stroke-width="3"/><circle cx="862" cy="1238" r="7.5" stroke="#DBDBDB" stroke-opacity=".2" stroke-width="3"/><circle cx="862" cy="2483" r="7.5" stroke="#DBDBDB" stroke-opacity=".2" stroke-width="3"/><circle cx="862" cy="4147" r="7.5" stroke="#DBDBDB" stroke-opacity=".2" stroke-width="3"/><circle cx="862" cy="2899" r="7.5" stroke="#DBDBDB" stroke-opacity=".2" stroke-width="3"/><circle cx="862" cy="4563" r="7.5" stroke="#DBDBDB" stroke-opacity=".2" stroke-width="3"/><circle cx="862" cy="3315" r="7.5" stroke="#DBDBDB" stroke-opacity=".2" stroke-width="3"/><circle cx="862" cy="4979" r="7.5" stroke="#DBDBDB" stroke-opacity=".2" stroke-width="3"/><circle cx="862" cy="3731" r="7.5" stroke="#DBDBDB" stroke-opacity=".2" stroke-width="3"/><circle cx="862" cy="5395" r="7.5" stroke="#DBDBDB" stroke-opacity=".2" stroke-width="3"/><circle cx="862" cy="5811" r="7.5" stroke="#DBDBDB" stroke-opacity=".2" stroke-width="3"/><circle cx="862" cy="6227" r="7.5" stroke="#DBDBDB" stroke-opacity=".2" stroke-width="3"/><circle cx="862" cy="1653" r="7.5" stroke="#DBDBDB" stroke-opacity=".2" stroke-width="3"/><circle cx="862" cy="2067" r="7.5" stroke="#DBDBDB" stroke-opacity=".2" stroke-width="3"/><path d="M1144 0v400m0 15v400m0 15v400m0 15v400m0 15v400m0 15v400m0 16v400m0 1264v400m0-1648v400m0 1264v400m0-1648v400m0 1264v400m0-1648v400m0 1264v400m0 16v400m0 16v400" stroke="#DBDBDB" stroke-opacity=".2" stroke-width="3"/><circle cx="1144" cy="408" r="7.5" stroke="#DBDBDB" stroke-opacity=".2" stroke-width="3"/><circle cx="1144" cy="823" r="7.5" stroke="#DBDBDB" stroke-opacity=".2" stroke-width="3"/><circle cx="1144" cy="1238" r="7.5" stroke="#DBDBDB" stroke-opacity=".2" stroke-width="3"/><circle cx="1144" cy="2483" r="7.5" stroke="#DBDBDB" stroke-opacity=".2" stroke-width="3"/><circle cx="1144" cy="4147" r="7.5" stroke="#DBDBDB" stroke-opacity=".2" stroke-width="3"/><circle cx="1144" cy="2899" r="7.5" stroke="#DBDBDB" stroke-opacity=".2" stroke-width="3"/><circle cx="1144" cy="4563" r="7.5" stroke="#DBDBDB" stroke-opacity=".2" stroke-width="3"/><circle cx="1144" cy="3315" r="7.5" stroke="#DBDBDB" stroke-opacity=".2" stroke-width="3"/><circle cx="1144" cy="4979" r="7.5" stroke="#DBDBDB" stroke-opacity=".2" stroke-width="3"/><circle cx="1144" cy="3731" r="7.5" stroke="#DBDBDB" stroke-opacity=".2" stroke-width="3"/><circle cx="1144" cy="5395" r="7.5" stroke="#DBDBDB" stroke-opacity=".2" stroke-width="3"/><circle cx="1144" cy="5811" r="7.5" stroke="#DBDBDB" stroke-opacity=".2" stroke-width="3"/><circle cx="1144" cy="6227" r="7.5" stroke="#DBDBDB" stroke-opacity=".2" stroke-width="3"/><circle cx="1144" cy="1653" r="7.5" stroke="#DBDBDB" stroke-opacity=".2" stroke-width="3"/><circle cx="1144" cy="2067" r="7.5" stroke="#DBDBDB" stroke-opacity=".2" stroke-width="3"/><path d="M1426 0v400m0 15v400m0 15v400m0 15v400m0 15v400m0 15v400m0 16v400m0 1264v400m0-1648v400m0 1264v400m0-1648v400m0 1264v400m0-1648v400m0 1264v400m0 16v400m0 16v400" stroke="#DBDBDB" stroke-opacity=".2" stroke-width="3"/><circle cx="1426" cy="408" r="7.5" stroke="#DBDBDB" stroke-opacity=".2" stroke-width="3"/><circle cx="1426" cy="823" r="7.5" stroke="#DBDBDB" stroke-opacity=".2" stroke-width="3"/><circle cx="1426" cy="1238" r="7.5" stroke="#DBDBDB" stroke-opacity=".2" stroke-width="3"/><circle cx="1426" cy="2483" r="7.5" stroke="#DBDBDB" stroke-opacity=".2" stroke-width="3"/><circle cx="1426" cy="4147" r="7.5" stroke="#DBDBDB" stroke-opacity=".2" stroke-width="3"/><circle cx="1426" cy="2899" r="7.5" stroke="#DBDBDB" stroke-opacity=".2" stroke-width="3"/><circle cx="1426" cy="4563" r="7.5" stroke="#DBDBDB" stroke-opacity=".2" stroke-width="3"/><circle cx="1426" cy="3315" r="7.5" stroke="#DBDBDB" stroke-opacity=".2" stroke-width="3"/><circle cx="1426" cy="4979" r="7.5" stroke="#DBDBDB" stroke-opacity=".2" stroke-width="3"/><circle cx="1426" cy="3731" r="7.5" stroke="#DBDBDB" stroke-opacity=".2" stroke-width="3"/><circle cx="1426" cy="5395" r="7.5" stroke="#DBDBDB" stroke-opacity=".2" stroke-width="3"/><circle cx="1426" cy="5811" r="7.5" stroke="#DBDBDB" stroke-opacity=".2" stroke-width="3"/><circle cx="1426" cy="6227" r="7.5" stroke="#DBDBDB" stroke-opacity=".2" stroke-width="3"/><circle cx="1426" cy="1653" r="7.5" stroke="#DBDBDB" stroke-opacity=".2" stroke-width="3"/><circle cx="1426" cy="2067" r="7.5" stroke="#DBDBDB" stroke-opacity=".2" stroke-width="3"/><path d="M718 201v400m0 15v400m0 15v400m0 15v400m0 15v400m0 15v400m0 16v400m0 1264v400m0-1648v400m0 1264v400m0-1648v400m0 1264v400m0-1648v400m0 1264v400m0 16v400m0 16v400" stroke="#DBDBDB" stroke-opacity=".2" stroke-width="3"/><circle cx="718" cy="609" r="7.5" stroke="#DBDBDB" stroke-opacity=".2" stroke-width="3"/><circle cx="718" cy="1024" r="7.5" stroke="#DBDBDB" stroke-opacity=".2" stroke-width="3"/><circle cx="718" cy="1439" r="7.5" stroke="#DBDBDB" stroke-opacity=".2" stroke-width="3"/><circle cx="718" cy="2684" r="7.5" stroke="#DBDBDB" stroke-opacity=".2" stroke-width="3"/><circle cx="718" cy="4348" r="7.5" stroke="#DBDBDB" stroke-opacity=".2" stroke-width="3"/><circle cx="718" cy="3100" r="7.5" stroke="#DBDBDB" stroke-opacity=".2" stroke-width="3"/><circle cx="718" cy="4764" r="7.5" stroke="#DBDBDB" stroke-opacity=".2" stroke-width="3"/><circle cx="718" cy="3516" r="7.5" stroke="#DBDBDB" stroke-opacity=".2" stroke-width="3"/><circle cx="718" cy="5180" r="7.5" stroke="#DBDBDB" stroke-opacity=".2" stroke-width="3"/><circle cx="718" cy="3932" r="7.5" stroke="#DBDBDB" stroke-opacity=".2" stroke-width="3"/><circle cx="718" cy="5596" r="7.5" stroke="#DBDBDB" stroke-opacity=".2" stroke-width="3"/><circle cx="718" cy="6012" r="7.5" stroke="#DBDBDB" stroke-opacity=".2" stroke-width="3"/><circle cx="718" cy="6428" r="7.5" stroke="#DBDBDB" stroke-opacity=".2" stroke-width="3"/><circle cx="718" cy="1854" r="7.5" stroke="#DBDBDB" stroke-opacity=".2" stroke-width="3"/><circle cx="718" cy="2268" r="7.5" stroke="#DBDBDB" stroke-opacity=".2" stroke-width="3"/><path d="M1003 201v400m0 15v400m0 15v400m0 15v400m0 15v400m0 15v400m0 16v400m0 1264v400m0-1648v400m0 1264v400m0-1648v400m0 1264v400m0-1648v400m0 1264v400m0 16v400m0 16v400" stroke="#DBDBDB" stroke-opacity=".2" stroke-width="3"/><circle cx="1003" cy="609" r="7.5" stroke="#DBDBDB" stroke-opacity=".2" stroke-width="3"/><circle cx="1003" cy="1024" r="7.5" stroke="#DBDBDB" stroke-opacity=".2" stroke-width="3"/><circle cx="1003" cy="1439" r="7.5" stroke="#DBDBDB" stroke-opacity=".2" stroke-width="3"/><circle cx="1003" cy="2684" r="7.5" stroke="#DBDBDB" stroke-opacity=".2" stroke-width="3"/><circle cx="1003" cy="4348" r="7.5" stroke="#DBDBDB" stroke-opacity=".2" stroke-width="3"/><circle cx="1003" cy="3100" r="7.5" stroke="#DBDBDB" stroke-opacity=".2" stroke-width="3"/><circle cx="1003" cy="4764" r="7.5" stroke="#DBDBDB" stroke-opacity=".2" stroke-width="3"/><circle cx="1003" cy="3516" r="7.5" stroke="#DBDBDB" stroke-opacity=".2" stroke-width="3"/><circle cx="1003" cy="5180" r="7.5" stroke="#DBDBDB" stroke-opacity=".2" stroke-width="3"/><circle cx="1003" cy="3932" r="7.5" stroke="#DBDBDB" stroke-opacity=".2" stroke-width="3"/><circle cx="1003" cy="5596" r="7.5" stroke="#DBDBDB" stroke-opacity=".2" stroke-width="3"/><circle cx="1003" cy="6012" r="7.5" stroke="#DBDBDB" stroke-opacity=".2" stroke-width="3"/><circle cx="1003" cy="6428" r="7.5" stroke="#DBDBDB" stroke-opacity=".2" stroke-width="3"/><circle cx="1003" cy="1854" r="7.5" stroke="#DBDBDB" stroke-opacity=".2" stroke-width="3"/><circle cx="1003" cy="2268" r="7.5" stroke="#DBDBDB" stroke-opacity=".2" stroke-width="3"/><path d="M1285 201v400m0 15v400m0 15v400m0 15v400m0 15v400m0 15v400m0 16v400m0 1264v400m0-1648v400m0 1264v400m0-1648v400m0 1264v400m0-1648v400m0 1264v400m0 16v400m0 16v400" stroke="#DBDBDB" stroke-opacity=".2" stroke-width="3"/><circle cx="1285" cy="609" r="7.5" stroke="#DBDBDB" stroke-opacity=".2" stroke-width="3"/><circle cx="1285" cy="1024" r="7.5" stroke="#DBDBDB" stroke-opacity=".2" stroke-width="3"/><circle cx="1285" cy="1439" r="7.5" stroke="#DBDBDB" stroke-opacity=".2" stroke-width="3"/><circle cx="1285" cy="2684" r="7.5" stroke="#DBDBDB" stroke-opacity=".2" stroke-width="3"/><circle cx="1285" cy="4348" r="7.5" stroke="#DBDBDB" stroke-opacity=".2" stroke-width="3"/><circle cx="1285" cy="3100" r="7.5" stroke="#DBDBDB" stroke-opacity=".2" stroke-width="3"/><circle cx="1285" cy="4764" r="7.5" stroke="#DBDBDB" stroke-opacity=".2" stroke-width="3"/><circle cx="1285" cy="3516" r="7.5" stroke="#DBDBDB" stroke-opacity=".2" stroke-width="3"/><circle cx="1285" cy="5180" r="7.5" stroke="#DBDBDB" stroke-opacity=".2" stroke-width="3"/><circle cx="1285" cy="3932" r="7.5" stroke="#DBDBDB" stroke-opacity=".2" stroke-width="3"/><circle cx="1285" cy="5596" r="7.5" stroke="#DBDBDB" stroke-opacity=".2" stroke-width="3"/><circle cx="1285" cy="6012" r="7.5" stroke="#DBDBDB" stroke-opacity=".2" stroke-width="3"/><circle cx="1285" cy="6428" r="7.5" stroke="#DBDBDB" stroke-opacity=".2" stroke-width="3"/><circle cx="1285" cy="1854" r="7.5" stroke="#DBDBDB" stroke-opacity=".2" stroke-width="3"/><circle cx="1285" cy="2268" r="7.5" stroke="#DBDBDB" stroke-opacity=".2" stroke-width="3"/><path d="M1567 201v400m0 15v400m0 15v400m0 15v400m0 15v400m0 15v400m0 16v400m0 1264v400m0-1648v400m0 1264v400m0-1648v400m0 1264v400m0-1648v400m0 1264v400m0 16v400m0 16v400" stroke="#DBDBDB" stroke-opacity=".2" stroke-width="3"/><circle cx="1567" cy="609" r="7.5" stroke="#DBDBDB" stroke-opacity=".2" stroke-width="3"/><circle cx="1567" cy="1024" r="7.5" stroke="#DBDBDB" stroke-opacity=".2" stroke-width="3"/><circle cx="1567" cy="1439" r="7.5" stroke="#DBDBDB" stroke-opacity=".2" stroke-width="3"/><circle cx="1567" cy="2684" r="7.5" stroke="#DBDBDB" stroke-opacity=".2" stroke-width="3"/><circle cx="1567" cy="4348" r="7.5" stroke="#DBDBDB" stroke-opacity=".2" stroke-width="3"/><circle cx="1567" cy="3100" r="7.5" stroke="#DBDBDB" stroke-opacity=".2" stroke-width="3"/><circle cx="1567" cy="4764" r="7.5" stroke="#DBDBDB" stroke-opacity=".2" stroke-width="3"/><circle cx="1567" cy="3516" r="7.5" stroke="#DBDBDB" stroke-opacity=".2" stroke-width="3"/><circle cx="1567" cy="5180" r="7.5" stroke="#DBDBDB" stroke-opacity=".2" stroke-width="3"/><circle cx="1567" cy="3932" r="7.5" stroke="#DBDBDB" stroke-opacity=".2" stroke-width="3"/><circle cx="1567" cy="5596" r="7.5" stroke="#DBDBDB" stroke-opacity=".2" stroke-width="3"/><circle cx="1567" cy="6012" r="7.5" stroke="#DBDBDB" stroke-opacity=".2" stroke-width="3"/><circle cx="1567" cy="6428" r="7.5" stroke="#DBDBDB" stroke-opacity=".2" stroke-width="3"/><circle cx="1567" cy="1854" r="7.5" stroke="#DBDBDB" stroke-opacity=".2" stroke-width="3"/><circle cx="1567" cy="2268" r="7.5" stroke="#DBDBDB" stroke-opacity=".2" stroke-width="3"/><path d="M9 414v400m0 15v400m0 15v400m0 15v400m0 15v400m0 15v400m0 16v400m0 1264v400m0-1648v400m0 1264v400m0-1648v400m0 1264v400m0-1648v400m0 1264v400m0 16v400" stroke="#DBDBDB" stroke-opacity=".2" stroke-width="3"/><circle cx="9" cy="822" r="7.5" stroke="#DBDBDB" stroke-opacity=".2" stroke-width="3"/><circle cx="9" cy="1237" r="7.5" stroke="#DBDBDB" stroke-opacity=".2" stroke-width="3"/><circle cx="9" cy="1652" r="7.5" stroke="#DBDBDB" stroke-opacity=".2" stroke-width="3"/><circle cx="9" cy="2897" r="7.5" stroke="#DBDBDB" stroke-opacity=".2" stroke-width="3"/><circle cx="9" cy="4561" r="7.5" stroke="#DBDBDB" stroke-opacity=".2" stroke-width="3"/><circle cx="9" cy="3313" r="7.5" stroke="#DBDBDB" stroke-opacity=".2" stroke-width="3"/><circle cx="9" cy="4977" r="7.5" stroke="#DBDBDB" stroke-opacity=".2" stroke-width="3"/><circle cx="9" cy="3729" r="7.5" stroke="#DBDBDB" stroke-opacity=".2" stroke-width="3"/><circle cx="9" cy="5393" r="7.5" stroke="#DBDBDB" stroke-opacity=".2" stroke-width="3"/><circle cx="9" cy="4145" r="7.5" stroke="#DBDBDB" stroke-opacity=".2" stroke-width="3"/><circle cx="9" cy="5809" r="7.5" stroke="#DBDBDB" stroke-opacity=".2" stroke-width="3"/><circle cx="9" cy="6225" r="7.5" stroke="#DBDBDB" stroke-opacity=".2" stroke-width="3"/><circle cx="9" cy="2067" r="7.5" stroke="#DBDBDB" stroke-opacity=".2" stroke-width="3"/><circle cx="9" cy="2481" r="7.5" stroke="#DBDBDB" stroke-opacity=".2" stroke-width="3"/></svg>